# xmcd
#
# Track frame offsets: 
#        150
#        18801
#        32883
#        57927
#        75660
#        91592
#        106208
#        125147
#        145060
#        162108
#        180360
#        197667
#        214981
#        234110
#        253278
#        269433
#        286585
#        302160
#        322237
#
# Disc length: 4544 seconds
#
# Revision: 0
# Processed by: cddbd v1.5.2PL0 Copyright (c) Steve Scherf et al.
# Submitted via: ExactAudioCopy v0.95a4
#
DISCID=0311be13
DTITLE=Hill, Faith - Hill, Faith - Best Of
DYEAR=2000
DGENRE=Country
TTITLE0=Breathe
TTITLE1=Way You Love Me, The
TTITLE2=What's In It For Me
TTITLE3=Love Is A Sweet Thing
TTITLE4=I Got My Baby
TTITLE5=This Kiss
TTITLE6=Let's Make Love With (Tim McGraw)
TTITLE7=Let Me Let Go
TTITLE8=It Will Be Me
TTITLE9=If I'm Not In Love
TTITLE10=Me
TTITLE11=Hard Way, The
TTITLE12=That's How Love Moves
TTITLE13=Secret Of Life, The
TTITLE14=You Give Me Love
TTITLE15=Love Ain't Like That
TTITLE16=Better Day
TTITLE17=Just To Hear You Say That You Love Me With (Tim McGraw)
TTITLE18=Let Me Let Go (Movie Version) (From 'Message In A Bottle')
EXTD=
EXTT0=
EXTT1=
EXTT2=
EXTT3=
EXTT4=
EXTT5=
EXTT6=
EXTT7=
EXTT8=
EXTT9=
EXTT10=
EXTT11=
EXTT12=
EXTT13=
EXTT14=
EXTT15=
EXTT16=
EXTT17=
EXTT18=
PLAYORDER=
